<mxfile host="app.diagrams.net" modified="2023-04-01T21:05:30.131Z" agent="Mozilla/5.0 (Macintosh; Intel Mac OS X 10_15_7) AppleWebKit/537.36 (KHTML, like Gecko) Chrome/111.0.0.0 Safari/537.36" etag="b-BB_4tBhPfqn-AQccUB" version="21.1.2" type="device">
  <diagram name="Page-1" id="Ybf2lwc-0gAT_j1KHLrs">
    <mxGraphModel dx="1236" dy="-369" grid="1" gridSize="10" guides="1" tooltips="1" connect="1" arrows="1" fold="1" page="1" pageScale="1" pageWidth="850" pageHeight="1100" math="0" shadow="0">
      <root>
        <mxCell id="0" />
        <mxCell id="1" parent="0" />
        <mxCell id="CaHpgAO3zURd7GV3DpT8-328" value="&lt;font face=&quot;Times New Roman&quot; style=&quot;font-size: 20px;&quot;&gt;p = 5&amp;nbsp; /&amp;nbsp; without LC&lt;/font&gt;" style="swimlane;horizontal=0;whiteSpace=wrap;html=1;startSize=40;fillColor=#f5f5f5;fontColor=#333333;strokeColor=#666666;" vertex="1" parent="1">
          <mxGeometry x="200" y="1480" width="920" height="280" as="geometry" />
        </mxCell>
        <mxCell id="CaHpgAO3zURd7GV3DpT8-329" value="&lt;font face=&quot;Times New Roman&quot; style=&quot;font-size: 20px;&quot;&gt;p = 5&amp;nbsp; /&amp;nbsp; with LC&lt;br&gt;&lt;/font&gt;" style="swimlane;horizontal=0;whiteSpace=wrap;html=1;startSize=40;fillColor=#f5f5f5;fontColor=#333333;strokeColor=#666666;" vertex="1" parent="1">
          <mxGeometry x="200" y="1760" width="920" height="280" as="geometry" />
        </mxCell>
        <mxCell id="CaHpgAO3zURd7GV3DpT8-330" value="&lt;b style=&quot;border-color: var(--border-color); font-family: Helvetica;&quot;&gt;&lt;font style=&quot;border-color: var(--border-color); font-size: 20px;&quot; face=&quot;Times New Roman&quot;&gt;low density&lt;/font&gt;&lt;/b&gt;" style="swimlane;whiteSpace=wrap;html=1;fontFamily=Times New Roman;fontSize=17;startSize=40;fillColor=#f5f5f5;fontColor=#333333;strokeColor=#666666;" vertex="1" parent="1">
          <mxGeometry x="240" y="1440" width="440" height="1160" as="geometry" />
        </mxCell>
        <mxCell id="CaHpgAO3zURd7GV3DpT8-372" value="&lt;b style=&quot;font-family: Helvetica;&quot;&gt;&lt;font style=&quot;font-size: 20px;&quot; face=&quot;Times New Roman&quot;&gt;high density&lt;/font&gt;&lt;/b&gt;" style="swimlane;whiteSpace=wrap;html=1;fontFamily=Times New Roman;fontSize=17;startSize=40;fillColor=#f5f5f5;fontColor=#333333;strokeColor=#666666;" vertex="1" parent="CaHpgAO3zURd7GV3DpT8-330">
          <mxGeometry x="440" width="440" height="1160" as="geometry" />
        </mxCell>
        <mxCell id="CaHpgAO3zURd7GV3DpT8-569" value="" style="group;direction=east;" vertex="1" connectable="0" parent="CaHpgAO3zURd7GV3DpT8-372">
          <mxGeometry x="90" y="400" width="220" height="160" as="geometry" />
        </mxCell>
        <mxCell id="CaHpgAO3zURd7GV3DpT8-570" value="&lt;font face=&quot;Times New Roman&quot; style=&quot;font-size: 15px;&quot;&gt;&lt;b&gt;X&lt;sub&gt;2&lt;/sub&gt;&lt;/b&gt;&lt;/font&gt;" style="ellipse;whiteSpace=wrap;html=1;aspect=fixed;direction=east;" vertex="1" parent="CaHpgAO3zURd7GV3DpT8-569">
          <mxGeometry x="60" y="60" width="40" height="40" as="geometry" />
        </mxCell>
        <mxCell id="CaHpgAO3zURd7GV3DpT8-571" value="&lt;font face=&quot;Times New Roman&quot; style=&quot;font-size: 15px;&quot;&gt;&lt;b&gt;X&lt;sub&gt;4&lt;/sub&gt;&lt;/b&gt;&lt;/font&gt;" style="ellipse;whiteSpace=wrap;html=1;aspect=fixed;direction=east;" vertex="1" parent="CaHpgAO3zURd7GV3DpT8-569">
          <mxGeometry x="180" y="60" width="40" height="40" as="geometry" />
        </mxCell>
        <mxCell id="CaHpgAO3zURd7GV3DpT8-572" value="&lt;font style=&quot;font-size: 15px;&quot; face=&quot;Times New Roman&quot;&gt;&lt;b&gt;X&lt;span style=&quot;&quot;&gt;&lt;sub&gt;3&lt;/sub&gt;&lt;/span&gt;&lt;/b&gt;&lt;/font&gt;" style="ellipse;whiteSpace=wrap;html=1;aspect=fixed;direction=east;" vertex="1" parent="CaHpgAO3zURd7GV3DpT8-569">
          <mxGeometry x="120" y="140" width="40" height="40" as="geometry" />
        </mxCell>
        <mxCell id="CaHpgAO3zURd7GV3DpT8-573" value="" style="endArrow=none;html=1;rounded=0;exitX=1;exitY=0;exitDx=0;exitDy=0;entryX=0;entryY=1;entryDx=0;entryDy=0;endFill=0;" edge="1" parent="CaHpgAO3zURd7GV3DpT8-569" source="CaHpgAO3zURd7GV3DpT8-572" target="CaHpgAO3zURd7GV3DpT8-571">
          <mxGeometry width="50" height="50" relative="1" as="geometry">
            <mxPoint x="220" y="160" as="sourcePoint" />
            <mxPoint x="270" y="110" as="targetPoint" />
          </mxGeometry>
        </mxCell>
        <mxCell id="CaHpgAO3zURd7GV3DpT8-574" value="" style="endArrow=none;html=1;rounded=0;exitX=1;exitY=1;exitDx=0;exitDy=0;endFill=0;" edge="1" parent="CaHpgAO3zURd7GV3DpT8-569" source="CaHpgAO3zURd7GV3DpT8-570" target="CaHpgAO3zURd7GV3DpT8-572">
          <mxGeometry width="50" height="50" relative="1" as="geometry">
            <mxPoint x="140" y="120" as="sourcePoint" />
            <mxPoint x="270" y="110" as="targetPoint" />
          </mxGeometry>
        </mxCell>
        <mxCell id="CaHpgAO3zURd7GV3DpT8-575" value="" style="endArrow=none;html=1;rounded=0;exitX=0;exitY=0.5;exitDx=0;exitDy=0;entryX=1;entryY=0.5;entryDx=0;entryDy=0;endFill=0;" edge="1" parent="CaHpgAO3zURd7GV3DpT8-569" source="CaHpgAO3zURd7GV3DpT8-571" target="CaHpgAO3zURd7GV3DpT8-570">
          <mxGeometry width="50" height="50" relative="1" as="geometry">
            <mxPoint x="230" y="160" as="sourcePoint" />
            <mxPoint x="280" y="110" as="targetPoint" />
          </mxGeometry>
        </mxCell>
        <mxCell id="CaHpgAO3zURd7GV3DpT8-576" value="&lt;font face=&quot;Times New Roman&quot; style=&quot;font-size: 15px;&quot;&gt;&lt;b&gt;X&lt;sub&gt;5&lt;/sub&gt;&lt;/b&gt;&lt;/font&gt;" style="ellipse;whiteSpace=wrap;html=1;aspect=fixed;direction=east;" vertex="1" parent="CaHpgAO3zURd7GV3DpT8-372">
          <mxGeometry x="270" y="350" width="40" height="40" as="geometry" />
        </mxCell>
        <mxCell id="CaHpgAO3zURd7GV3DpT8-577" value="" style="endArrow=classic;html=1;rounded=0;exitX=0.5;exitY=1;exitDx=0;exitDy=0;entryX=0.5;entryY=0;entryDx=0;entryDy=0;" edge="1" parent="CaHpgAO3zURd7GV3DpT8-372" source="CaHpgAO3zURd7GV3DpT8-576" target="CaHpgAO3zURd7GV3DpT8-571">
          <mxGeometry width="50" height="50" relative="1" as="geometry">
            <mxPoint x="320" y="560" as="sourcePoint" />
            <mxPoint x="370" y="510" as="targetPoint" />
          </mxGeometry>
        </mxCell>
        <mxCell id="CaHpgAO3zURd7GV3DpT8-578" value="&lt;font face=&quot;Times New Roman&quot; style=&quot;font-size: 15px;&quot;&gt;&lt;b&gt;X&lt;sub&gt;1&lt;/sub&gt;&lt;/b&gt;&lt;/font&gt;" style="ellipse;whiteSpace=wrap;html=1;aspect=fixed;direction=east;" vertex="1" parent="CaHpgAO3zURd7GV3DpT8-372">
          <mxGeometry x="150" y="350" width="40" height="40" as="geometry" />
        </mxCell>
        <mxCell id="CaHpgAO3zURd7GV3DpT8-579" value="" style="endArrow=classic;html=1;rounded=0;exitX=0.5;exitY=1;exitDx=0;exitDy=0;entryX=0.5;entryY=0;entryDx=0;entryDy=0;" edge="1" parent="CaHpgAO3zURd7GV3DpT8-372" source="CaHpgAO3zURd7GV3DpT8-578" target="CaHpgAO3zURd7GV3DpT8-570">
          <mxGeometry width="50" height="50" relative="1" as="geometry">
            <mxPoint x="300" y="400" as="sourcePoint" />
            <mxPoint x="300" y="470" as="targetPoint" />
          </mxGeometry>
        </mxCell>
        <mxCell id="CaHpgAO3zURd7GV3DpT8-580" value="" style="endArrow=classic;html=1;exitX=0;exitY=1;exitDx=0;exitDy=0;entryX=0;entryY=0.5;entryDx=0;entryDy=0;curved=1;" edge="1" parent="CaHpgAO3zURd7GV3DpT8-372" source="CaHpgAO3zURd7GV3DpT8-578" target="CaHpgAO3zURd7GV3DpT8-572">
          <mxGeometry width="50" height="50" relative="1" as="geometry">
            <mxPoint x="610" y="730" as="sourcePoint" />
            <mxPoint x="660" y="680" as="targetPoint" />
            <Array as="points">
              <mxPoint x="80" y="520" />
            </Array>
          </mxGeometry>
        </mxCell>
        <mxCell id="CaHpgAO3zURd7GV3DpT8-581" value="" style="endArrow=classic;html=1;rounded=0;exitX=0;exitY=1;exitDx=0;exitDy=0;entryX=1;entryY=0;entryDx=0;entryDy=0;" edge="1" parent="CaHpgAO3zURd7GV3DpT8-372" source="CaHpgAO3zURd7GV3DpT8-576" target="CaHpgAO3zURd7GV3DpT8-570">
          <mxGeometry width="50" height="50" relative="1" as="geometry">
            <mxPoint x="610" y="730" as="sourcePoint" />
            <mxPoint x="660" y="680" as="targetPoint" />
          </mxGeometry>
        </mxCell>
        <mxCell id="CaHpgAO3zURd7GV3DpT8-582" value="" style="endArrow=classic;html=1;rounded=0;exitX=1;exitY=0.5;exitDx=0;exitDy=0;entryX=0;entryY=0.5;entryDx=0;entryDy=0;" edge="1" parent="CaHpgAO3zURd7GV3DpT8-372" source="CaHpgAO3zURd7GV3DpT8-578" target="CaHpgAO3zURd7GV3DpT8-576">
          <mxGeometry width="50" height="50" relative="1" as="geometry">
            <mxPoint x="180" y="400" as="sourcePoint" />
            <mxPoint x="180" y="470" as="targetPoint" />
          </mxGeometry>
        </mxCell>
        <mxCell id="CaHpgAO3zURd7GV3DpT8-669" value="" style="group" vertex="1" connectable="0" parent="CaHpgAO3zURd7GV3DpT8-372">
          <mxGeometry x="80" y="60" width="230" height="210" as="geometry" />
        </mxCell>
        <mxCell id="CaHpgAO3zURd7GV3DpT8-516" value="" style="group;direction=east;" vertex="1" connectable="0" parent="CaHpgAO3zURd7GV3DpT8-669">
          <mxGeometry x="10" y="50" width="220" height="160" as="geometry" />
        </mxCell>
        <mxCell id="CaHpgAO3zURd7GV3DpT8-517" value="&lt;b style=&quot;font-size: 15px;&quot;&gt;&lt;font face=&quot;Times New Roman&quot;&gt;X&lt;span style=&quot;&quot;&gt;&lt;sub&gt;2&lt;/sub&gt;&lt;/span&gt;&lt;/font&gt;&lt;/b&gt;" style="ellipse;whiteSpace=wrap;html=1;aspect=fixed;direction=east;" vertex="1" parent="CaHpgAO3zURd7GV3DpT8-516">
          <mxGeometry x="60" y="60" width="40" height="40" as="geometry" />
        </mxCell>
        <mxCell id="CaHpgAO3zURd7GV3DpT8-518" value="&lt;font face=&quot;Times New Roman&quot; style=&quot;font-size: 15px;&quot;&gt;&lt;b&gt;X&lt;sub&gt;4&lt;/sub&gt;&lt;/b&gt;&lt;/font&gt;" style="ellipse;whiteSpace=wrap;html=1;aspect=fixed;direction=east;" vertex="1" parent="CaHpgAO3zURd7GV3DpT8-516">
          <mxGeometry x="180" y="60" width="40" height="40" as="geometry" />
        </mxCell>
        <mxCell id="CaHpgAO3zURd7GV3DpT8-519" value="&lt;font style=&quot;font-size: 15px;&quot; face=&quot;Times New Roman&quot;&gt;&lt;b&gt;X&lt;span style=&quot;&quot;&gt;&lt;sub&gt;3&lt;/sub&gt;&lt;/span&gt;&lt;/b&gt;&lt;/font&gt;" style="ellipse;whiteSpace=wrap;html=1;aspect=fixed;direction=east;" vertex="1" parent="CaHpgAO3zURd7GV3DpT8-516">
          <mxGeometry x="120" y="140" width="40" height="40" as="geometry" />
        </mxCell>
        <mxCell id="CaHpgAO3zURd7GV3DpT8-520" value="" style="endArrow=none;html=1;rounded=0;exitX=1;exitY=0;exitDx=0;exitDy=0;entryX=0;entryY=1;entryDx=0;entryDy=0;endFill=0;" edge="1" parent="CaHpgAO3zURd7GV3DpT8-516" source="CaHpgAO3zURd7GV3DpT8-519" target="CaHpgAO3zURd7GV3DpT8-518">
          <mxGeometry width="50" height="50" relative="1" as="geometry">
            <mxPoint x="220" y="160" as="sourcePoint" />
            <mxPoint x="270" y="110" as="targetPoint" />
          </mxGeometry>
        </mxCell>
        <mxCell id="CaHpgAO3zURd7GV3DpT8-521" value="" style="endArrow=none;html=1;rounded=0;exitX=1;exitY=1;exitDx=0;exitDy=0;endFill=0;" edge="1" parent="CaHpgAO3zURd7GV3DpT8-516" source="CaHpgAO3zURd7GV3DpT8-517" target="CaHpgAO3zURd7GV3DpT8-519">
          <mxGeometry width="50" height="50" relative="1" as="geometry">
            <mxPoint x="140" y="120" as="sourcePoint" />
            <mxPoint x="270" y="110" as="targetPoint" />
          </mxGeometry>
        </mxCell>
        <mxCell id="CaHpgAO3zURd7GV3DpT8-522" value="" style="endArrow=none;html=1;rounded=0;exitX=0;exitY=0.5;exitDx=0;exitDy=0;entryX=1;entryY=0.5;entryDx=0;entryDy=0;endFill=0;" edge="1" parent="CaHpgAO3zURd7GV3DpT8-516" source="CaHpgAO3zURd7GV3DpT8-518" target="CaHpgAO3zURd7GV3DpT8-517">
          <mxGeometry width="50" height="50" relative="1" as="geometry">
            <mxPoint x="230" y="160" as="sourcePoint" />
            <mxPoint x="280" y="110" as="targetPoint" />
          </mxGeometry>
        </mxCell>
        <mxCell id="CaHpgAO3zURd7GV3DpT8-523" value="&lt;font face=&quot;Times New Roman&quot; style=&quot;font-size: 15px;&quot;&gt;&lt;b&gt;X&lt;sub&gt;5&lt;/sub&gt;&lt;/b&gt;&lt;/font&gt;" style="ellipse;whiteSpace=wrap;html=1;aspect=fixed;direction=east;" vertex="1" parent="CaHpgAO3zURd7GV3DpT8-669">
          <mxGeometry x="190" width="40" height="40" as="geometry" />
        </mxCell>
        <mxCell id="CaHpgAO3zURd7GV3DpT8-524" value="" style="endArrow=classic;html=1;rounded=0;exitX=0.5;exitY=1;exitDx=0;exitDy=0;entryX=0.5;entryY=0;entryDx=0;entryDy=0;" edge="1" parent="CaHpgAO3zURd7GV3DpT8-669" source="CaHpgAO3zURd7GV3DpT8-523" target="CaHpgAO3zURd7GV3DpT8-518">
          <mxGeometry width="50" height="50" relative="1" as="geometry">
            <mxPoint x="240" y="210" as="sourcePoint" />
            <mxPoint x="290" y="160" as="targetPoint" />
          </mxGeometry>
        </mxCell>
        <mxCell id="CaHpgAO3zURd7GV3DpT8-525" value="&lt;font face=&quot;Times New Roman&quot; style=&quot;font-size: 15px;&quot;&gt;&lt;b&gt;X&lt;sub&gt;1&lt;/sub&gt;&lt;/b&gt;&lt;/font&gt;" style="ellipse;whiteSpace=wrap;html=1;aspect=fixed;direction=east;" vertex="1" parent="CaHpgAO3zURd7GV3DpT8-669">
          <mxGeometry x="70" width="40" height="40" as="geometry" />
        </mxCell>
        <mxCell id="CaHpgAO3zURd7GV3DpT8-526" value="" style="endArrow=classic;html=1;rounded=0;exitX=0.5;exitY=1;exitDx=0;exitDy=0;entryX=0.5;entryY=0;entryDx=0;entryDy=0;" edge="1" parent="CaHpgAO3zURd7GV3DpT8-669" source="CaHpgAO3zURd7GV3DpT8-525" target="CaHpgAO3zURd7GV3DpT8-517">
          <mxGeometry width="50" height="50" relative="1" as="geometry">
            <mxPoint x="220" y="50" as="sourcePoint" />
            <mxPoint x="220" y="120" as="targetPoint" />
          </mxGeometry>
        </mxCell>
        <mxCell id="CaHpgAO3zURd7GV3DpT8-527" value="" style="endArrow=classic;html=1;exitX=0;exitY=1;exitDx=0;exitDy=0;entryX=0;entryY=0.5;entryDx=0;entryDy=0;curved=1;" edge="1" parent="CaHpgAO3zURd7GV3DpT8-669" source="CaHpgAO3zURd7GV3DpT8-525" target="CaHpgAO3zURd7GV3DpT8-519">
          <mxGeometry width="50" height="50" relative="1" as="geometry">
            <mxPoint x="530" y="380" as="sourcePoint" />
            <mxPoint x="580" y="330" as="targetPoint" />
            <Array as="points">
              <mxPoint y="170" />
            </Array>
          </mxGeometry>
        </mxCell>
        <mxCell id="CaHpgAO3zURd7GV3DpT8-528" value="" style="endArrow=classic;html=1;rounded=0;exitX=0;exitY=1;exitDx=0;exitDy=0;entryX=1;entryY=0;entryDx=0;entryDy=0;" edge="1" parent="CaHpgAO3zURd7GV3DpT8-669" source="CaHpgAO3zURd7GV3DpT8-523" target="CaHpgAO3zURd7GV3DpT8-517">
          <mxGeometry width="50" height="50" relative="1" as="geometry">
            <mxPoint x="530" y="380" as="sourcePoint" />
            <mxPoint x="580" y="330" as="targetPoint" />
          </mxGeometry>
        </mxCell>
        <mxCell id="CaHpgAO3zURd7GV3DpT8-529" value="" style="endArrow=classic;html=1;rounded=0;exitX=1;exitY=0.5;exitDx=0;exitDy=0;entryX=0;entryY=0.5;entryDx=0;entryDy=0;" edge="1" parent="CaHpgAO3zURd7GV3DpT8-669" source="CaHpgAO3zURd7GV3DpT8-525" target="CaHpgAO3zURd7GV3DpT8-523">
          <mxGeometry width="50" height="50" relative="1" as="geometry">
            <mxPoint x="100" y="50" as="sourcePoint" />
            <mxPoint x="100" y="120" as="targetPoint" />
          </mxGeometry>
        </mxCell>
        <mxCell id="CaHpgAO3zURd7GV3DpT8-420" value="&lt;font face=&quot;Times New Roman&quot; style=&quot;font-size: 20px;&quot;&gt;p = 10&amp;nbsp; /&amp;nbsp; without LC&lt;/font&gt;" style="swimlane;horizontal=0;whiteSpace=wrap;html=1;startSize=40;fillColor=#f5f5f5;fontColor=#333333;strokeColor=#666666;" vertex="1" parent="CaHpgAO3zURd7GV3DpT8-330">
          <mxGeometry x="-40" y="600" width="920" height="280" as="geometry" />
        </mxCell>
        <mxCell id="CaHpgAO3zURd7GV3DpT8-349" value="&lt;font face=&quot;Times New Roman&quot; style=&quot;font-size: 15px;&quot;&gt;&lt;b&gt;X&lt;sub&gt;1&lt;/sub&gt;&lt;/b&gt;&lt;/font&gt;" style="ellipse;whiteSpace=wrap;html=1;aspect=fixed;" vertex="1" parent="CaHpgAO3zURd7GV3DpT8-420">
          <mxGeometry x="82.5" y="42" width="38" height="38" as="geometry" />
        </mxCell>
        <mxCell id="CaHpgAO3zURd7GV3DpT8-350" value="&lt;font face=&quot;Times New Roman&quot; style=&quot;font-size: 15px;&quot;&gt;&lt;b&gt;X&lt;sub&gt;2&lt;/sub&gt;&lt;/b&gt;&lt;/font&gt;" style="ellipse;whiteSpace=wrap;html=1;aspect=fixed;" vertex="1" parent="CaHpgAO3zURd7GV3DpT8-420">
          <mxGeometry x="158.77906976744185" y="42" width="38" height="38" as="geometry" />
        </mxCell>
        <mxCell id="CaHpgAO3zURd7GV3DpT8-351" value="&lt;font face=&quot;Times New Roman&quot; style=&quot;font-size: 15px;&quot;&gt;&lt;b&gt;X&lt;sub&gt;3&lt;/sub&gt;&lt;/b&gt;&lt;/font&gt;" style="ellipse;whiteSpace=wrap;html=1;aspect=fixed;" vertex="1" parent="CaHpgAO3zURd7GV3DpT8-420">
          <mxGeometry x="120.63953488372093" y="118" width="38" height="38" as="geometry" />
        </mxCell>
        <mxCell id="CaHpgAO3zURd7GV3DpT8-352" value="&lt;font face=&quot;Times New Roman&quot; style=&quot;font-size: 15px;&quot;&gt;&lt;b&gt;X&lt;sub&gt;4&lt;/sub&gt;&lt;/b&gt;&lt;/font&gt;" style="ellipse;whiteSpace=wrap;html=1;aspect=fixed;" vertex="1" parent="CaHpgAO3zURd7GV3DpT8-420">
          <mxGeometry x="196.9186046511628" y="194" width="38" height="38" as="geometry" />
        </mxCell>
        <mxCell id="CaHpgAO3zURd7GV3DpT8-353" value="&lt;font face=&quot;Times New Roman&quot; style=&quot;font-size: 15px;&quot;&gt;&lt;b&gt;X&lt;sub&gt;5&lt;/sub&gt;&lt;/b&gt;&lt;/font&gt;" style="ellipse;whiteSpace=wrap;html=1;aspect=fixed;" vertex="1" parent="CaHpgAO3zURd7GV3DpT8-420">
          <mxGeometry x="235.05813953488374" y="118" width="38" height="38" as="geometry" />
        </mxCell>
        <mxCell id="CaHpgAO3zURd7GV3DpT8-354" value="&lt;font face=&quot;Times New Roman&quot; style=&quot;font-size: 15px;&quot;&gt;&lt;b&gt;X&lt;sub&gt;6&lt;/sub&gt;&lt;/b&gt;&lt;/font&gt;" style="ellipse;whiteSpace=wrap;html=1;aspect=fixed;" vertex="1" parent="CaHpgAO3zURd7GV3DpT8-420">
          <mxGeometry x="282.7325581395349" y="194" width="38" height="38" as="geometry" />
        </mxCell>
        <mxCell id="CaHpgAO3zURd7GV3DpT8-355" value="&lt;font face=&quot;Times New Roman&quot; style=&quot;font-size: 15px;&quot;&gt;&lt;b&gt;X&lt;sub&gt;7&lt;/sub&gt;&lt;/b&gt;&lt;/font&gt;" style="ellipse;whiteSpace=wrap;html=1;aspect=fixed;" vertex="1" parent="CaHpgAO3zURd7GV3DpT8-420">
          <mxGeometry x="339.9418604651163" y="118" width="38" height="38" as="geometry" />
        </mxCell>
        <mxCell id="CaHpgAO3zURd7GV3DpT8-356" value="&lt;font face=&quot;Times New Roman&quot; style=&quot;font-size: 15px;&quot;&gt;&lt;b&gt;X&lt;sub&gt;9&lt;/sub&gt;&lt;/b&gt;&lt;/font&gt;" style="ellipse;whiteSpace=wrap;html=1;aspect=fixed;" vertex="1" parent="CaHpgAO3zURd7GV3DpT8-420">
          <mxGeometry x="311.3372093023256" y="42" width="38" height="38" as="geometry" />
        </mxCell>
        <mxCell id="CaHpgAO3zURd7GV3DpT8-357" value="&lt;font face=&quot;Times New Roman&quot; style=&quot;font-size: 15px;&quot;&gt;&lt;b&gt;X&lt;sub&gt;10&lt;/sub&gt;&lt;/b&gt;&lt;/font&gt;" style="ellipse;whiteSpace=wrap;html=1;aspect=fixed;" vertex="1" parent="CaHpgAO3zURd7GV3DpT8-420">
          <mxGeometry x="397.1511627906977" y="42" width="38" height="38" as="geometry" />
        </mxCell>
        <mxCell id="CaHpgAO3zURd7GV3DpT8-358" value="&lt;font face=&quot;Times New Roman&quot; style=&quot;font-size: 15px;&quot;&gt;&lt;b&gt;X&lt;sub&gt;8&lt;/sub&gt;&lt;/b&gt;&lt;/font&gt;" style="ellipse;whiteSpace=wrap;html=1;aspect=fixed;" vertex="1" parent="CaHpgAO3zURd7GV3DpT8-420">
          <mxGeometry x="387.6162790697675" y="194" width="38" height="38" as="geometry" />
        </mxCell>
        <mxCell id="CaHpgAO3zURd7GV3DpT8-359" style="edgeStyle=orthogonalEdgeStyle;rounded=0;orthogonalLoop=1;jettySize=auto;html=1;exitX=1;exitY=0.5;exitDx=0;exitDy=0;entryX=0;entryY=0.5;entryDx=0;entryDy=0;startArrow=none;startFill=0;endArrow=none;endFill=0;" edge="1" parent="CaHpgAO3zURd7GV3DpT8-420" source="CaHpgAO3zURd7GV3DpT8-352" target="CaHpgAO3zURd7GV3DpT8-354">
          <mxGeometry relative="1" as="geometry" />
        </mxCell>
        <mxCell id="CaHpgAO3zURd7GV3DpT8-360" value="" style="endArrow=classic;html=1;rounded=0;exitX=0.5;exitY=1;exitDx=0;exitDy=0;entryX=0;entryY=0;entryDx=0;entryDy=0;" edge="1" parent="CaHpgAO3zURd7GV3DpT8-420" source="CaHpgAO3zURd7GV3DpT8-349" target="CaHpgAO3zURd7GV3DpT8-351">
          <mxGeometry width="50" height="50" relative="1" as="geometry">
            <mxPoint x="330.40697674418607" y="70.5" as="sourcePoint" />
            <mxPoint x="378.0813953488372" y="23" as="targetPoint" />
          </mxGeometry>
        </mxCell>
        <mxCell id="CaHpgAO3zURd7GV3DpT8-361" value="" style="endArrow=none;html=1;rounded=0;exitX=0.5;exitY=1;exitDx=0;exitDy=0;entryX=1;entryY=0;entryDx=0;entryDy=0;startArrow=classic;startFill=1;endFill=0;" edge="1" parent="CaHpgAO3zURd7GV3DpT8-420" source="CaHpgAO3zURd7GV3DpT8-350" target="CaHpgAO3zURd7GV3DpT8-351">
          <mxGeometry width="50" height="50" relative="1" as="geometry">
            <mxPoint x="330.40697674418607" y="70.5" as="sourcePoint" />
            <mxPoint x="378.0813953488372" y="23" as="targetPoint" />
          </mxGeometry>
        </mxCell>
        <mxCell id="CaHpgAO3zURd7GV3DpT8-362" value="" style="endArrow=classic;html=1;rounded=0;exitX=0;exitY=1;exitDx=0;exitDy=0;entryX=1;entryY=0;entryDx=0;entryDy=0;" edge="1" parent="CaHpgAO3zURd7GV3DpT8-420" source="CaHpgAO3zURd7GV3DpT8-355" target="CaHpgAO3zURd7GV3DpT8-354">
          <mxGeometry width="50" height="50" relative="1" as="geometry">
            <mxPoint x="292.2674418604651" y="70.5" as="sourcePoint" />
            <mxPoint x="339.9418604651163" y="23" as="targetPoint" />
          </mxGeometry>
        </mxCell>
        <mxCell id="CaHpgAO3zURd7GV3DpT8-363" value="" style="endArrow=classic;html=1;rounded=0;exitX=1;exitY=1;exitDx=0;exitDy=0;entryX=0.025;entryY=0.325;entryDx=0;entryDy=0;entryPerimeter=0;" edge="1" parent="CaHpgAO3zURd7GV3DpT8-420" source="CaHpgAO3zURd7GV3DpT8-351" target="CaHpgAO3zURd7GV3DpT8-352">
          <mxGeometry width="50" height="50" relative="1" as="geometry">
            <mxPoint x="292.2674418604651" y="70.5" as="sourcePoint" />
            <mxPoint x="339.9418604651163" y="23" as="targetPoint" />
          </mxGeometry>
        </mxCell>
        <mxCell id="CaHpgAO3zURd7GV3DpT8-364" value="" style="endArrow=classic;html=1;rounded=0;fontFamily=Times New Roman;entryX=1;entryY=0.5;entryDx=0;entryDy=0;exitX=0;exitY=0.5;exitDx=0;exitDy=0;" edge="1" parent="CaHpgAO3zURd7GV3DpT8-420" source="CaHpgAO3zURd7GV3DpT8-357" target="CaHpgAO3zURd7GV3DpT8-356">
          <mxGeometry width="50" height="50" relative="1" as="geometry">
            <mxPoint x="478.19767441860466" y="23" as="sourcePoint" />
            <mxPoint x="525.8720930232558" y="-24.5" as="targetPoint" />
          </mxGeometry>
        </mxCell>
        <mxCell id="CaHpgAO3zURd7GV3DpT8-365" value="" style="endArrow=none;html=1;rounded=0;exitX=1;exitY=1;exitDx=0;exitDy=0;entryX=0.5;entryY=0;entryDx=0;entryDy=0;startArrow=none;startFill=0;endFill=0;" edge="1" parent="CaHpgAO3zURd7GV3DpT8-420" source="CaHpgAO3zURd7GV3DpT8-353" target="CaHpgAO3zURd7GV3DpT8-354">
          <mxGeometry width="50" height="50" relative="1" as="geometry">
            <mxPoint x="286.54651162790697" y="156" as="sourcePoint" />
            <mxPoint x="349.4767441860465" y="209.2" as="targetPoint" />
          </mxGeometry>
        </mxCell>
        <mxCell id="CaHpgAO3zURd7GV3DpT8-366" value="" style="endArrow=none;html=1;rounded=0;exitX=0.5;exitY=0;exitDx=0;exitDy=0;entryX=0;entryY=1;entryDx=0;entryDy=0;startArrow=none;startFill=0;endFill=0;" edge="1" parent="CaHpgAO3zURd7GV3DpT8-420" source="CaHpgAO3zURd7GV3DpT8-352" target="CaHpgAO3zURd7GV3DpT8-353">
          <mxGeometry width="50" height="50" relative="1" as="geometry">
            <mxPoint x="172.12790697674419" y="178.79999999999998" as="sourcePoint" />
            <mxPoint x="235.05813953488374" y="232" as="targetPoint" />
          </mxGeometry>
        </mxCell>
        <mxCell id="CaHpgAO3zURd7GV3DpT8-367" value="" style="endArrow=classic;html=1;rounded=0;entryX=0;entryY=0;entryDx=0;entryDy=0;exitX=1;exitY=1;exitDx=0;exitDy=0;" edge="1" parent="CaHpgAO3zURd7GV3DpT8-420" source="CaHpgAO3zURd7GV3DpT8-355" target="CaHpgAO3zURd7GV3DpT8-358">
          <mxGeometry width="50" height="50" relative="1" as="geometry">
            <mxPoint x="378.0813953488372" y="156" as="sourcePoint" />
            <mxPoint x="330.40697674418607" y="203.5" as="targetPoint" />
          </mxGeometry>
        </mxCell>
        <mxCell id="CaHpgAO3zURd7GV3DpT8-368" value="" style="endArrow=classic;html=1;rounded=0;exitX=0.5;exitY=1;exitDx=0;exitDy=0;entryX=0;entryY=0;entryDx=0;entryDy=0;" edge="1" parent="CaHpgAO3zURd7GV3DpT8-420" source="CaHpgAO3zURd7GV3DpT8-356" target="CaHpgAO3zURd7GV3DpT8-355">
          <mxGeometry width="50" height="50" relative="1" as="geometry">
            <mxPoint x="364.7325581395349" y="169.3" as="sourcePoint" />
            <mxPoint x="339.9418604651163" y="213" as="targetPoint" />
          </mxGeometry>
        </mxCell>
        <mxCell id="CaHpgAO3zURd7GV3DpT8-530" value="" style="endArrow=classic;html=1;exitX=0.5;exitY=1;exitDx=0;exitDy=0;entryX=0;entryY=1;entryDx=0;entryDy=0;curved=1;" edge="1" parent="CaHpgAO3zURd7GV3DpT8-420" source="CaHpgAO3zURd7GV3DpT8-351" target="CaHpgAO3zURd7GV3DpT8-354">
          <mxGeometry width="50" height="50" relative="1" as="geometry">
            <mxPoint x="163" y="160" as="sourcePoint" />
            <mxPoint x="208" y="216" as="targetPoint" />
            <Array as="points">
              <mxPoint x="140" y="300" />
            </Array>
          </mxGeometry>
        </mxCell>
        <mxCell id="CaHpgAO3zURd7GV3DpT8-531" value="" style="endArrow=classic;html=1;rounded=0;exitX=0;exitY=0.5;exitDx=0;exitDy=0;entryX=1;entryY=0.5;entryDx=0;entryDy=0;" edge="1" parent="CaHpgAO3zURd7GV3DpT8-420" source="CaHpgAO3zURd7GV3DpT8-355" target="CaHpgAO3zURd7GV3DpT8-353">
          <mxGeometry width="50" height="50" relative="1" as="geometry">
            <mxPoint x="356" y="160" as="sourcePoint" />
            <mxPoint x="325" y="210" as="targetPoint" />
          </mxGeometry>
        </mxCell>
        <mxCell id="CaHpgAO3zURd7GV3DpT8-536" value="" style="endArrow=classic;html=1;exitX=0.5;exitY=1;exitDx=0;exitDy=0;entryX=0;entryY=1;entryDx=0;entryDy=0;curved=1;" edge="1" parent="CaHpgAO3zURd7GV3DpT8-420">
          <mxGeometry width="50" height="50" relative="1" as="geometry">
            <mxPoint x="585" y="156" as="sourcePoint" />
            <mxPoint x="733" y="226" as="targetPoint" />
            <Array as="points">
              <mxPoint x="585" y="300" />
            </Array>
          </mxGeometry>
        </mxCell>
        <mxCell id="CaHpgAO3zURd7GV3DpT8-393" value="&lt;font face=&quot;Times New Roman&quot; style=&quot;font-size: 15px;&quot;&gt;&lt;b&gt;X&lt;sub&gt;1&lt;/sub&gt;&lt;/b&gt;&lt;/font&gt;" style="ellipse;whiteSpace=wrap;html=1;aspect=fixed;" vertex="1" parent="CaHpgAO3zURd7GV3DpT8-420">
          <mxGeometry x="526.5" y="41" width="38" height="38" as="geometry" />
        </mxCell>
        <mxCell id="CaHpgAO3zURd7GV3DpT8-394" value="&lt;font face=&quot;Times New Roman&quot; style=&quot;font-size: 15px;&quot;&gt;&lt;b&gt;X&lt;sub&gt;2&lt;/sub&gt;&lt;/b&gt;&lt;/font&gt;" style="ellipse;whiteSpace=wrap;html=1;aspect=fixed;" vertex="1" parent="CaHpgAO3zURd7GV3DpT8-420">
          <mxGeometry x="602.7790697674419" y="41" width="38" height="38" as="geometry" />
        </mxCell>
        <mxCell id="CaHpgAO3zURd7GV3DpT8-395" style="edgeStyle=orthogonalEdgeStyle;rounded=0;orthogonalLoop=1;jettySize=auto;html=1;exitX=1;exitY=0.5;exitDx=0;exitDy=0;entryX=0;entryY=0.5;entryDx=0;entryDy=0;" edge="1" parent="CaHpgAO3zURd7GV3DpT8-420" source="CaHpgAO3zURd7GV3DpT8-393" target="CaHpgAO3zURd7GV3DpT8-394">
          <mxGeometry relative="1" as="geometry" />
        </mxCell>
        <mxCell id="CaHpgAO3zURd7GV3DpT8-396" value="&lt;font face=&quot;Times New Roman&quot; style=&quot;font-size: 15px;&quot;&gt;&lt;b&gt;X&lt;sub&gt;3&lt;/sub&gt;&lt;/b&gt;&lt;/font&gt;" style="ellipse;whiteSpace=wrap;html=1;aspect=fixed;" vertex="1" parent="CaHpgAO3zURd7GV3DpT8-420">
          <mxGeometry x="564.6395348837209" y="117" width="38" height="38" as="geometry" />
        </mxCell>
        <mxCell id="CaHpgAO3zURd7GV3DpT8-397" value="&lt;font face=&quot;Times New Roman&quot; style=&quot;font-size: 15px;&quot;&gt;&lt;b&gt;X&lt;sub&gt;4&lt;/sub&gt;&lt;/b&gt;&lt;/font&gt;" style="ellipse;whiteSpace=wrap;html=1;aspect=fixed;" vertex="1" parent="CaHpgAO3zURd7GV3DpT8-420">
          <mxGeometry x="640.9186046511628" y="193" width="38" height="38" as="geometry" />
        </mxCell>
        <mxCell id="CaHpgAO3zURd7GV3DpT8-398" value="&lt;font face=&quot;Times New Roman&quot; style=&quot;font-size: 15px;&quot;&gt;&lt;b&gt;X&lt;sub&gt;5&lt;/sub&gt;&lt;/b&gt;&lt;/font&gt;" style="ellipse;whiteSpace=wrap;html=1;aspect=fixed;" vertex="1" parent="CaHpgAO3zURd7GV3DpT8-420">
          <mxGeometry x="679.0581395348837" y="117" width="38" height="38" as="geometry" />
        </mxCell>
        <mxCell id="CaHpgAO3zURd7GV3DpT8-399" value="&lt;font face=&quot;Times New Roman&quot; style=&quot;font-size: 15px;&quot;&gt;&lt;b&gt;X&lt;sub&gt;6&lt;/sub&gt;&lt;/b&gt;&lt;/font&gt;" style="ellipse;whiteSpace=wrap;html=1;aspect=fixed;" vertex="1" parent="CaHpgAO3zURd7GV3DpT8-420">
          <mxGeometry x="726.7325581395348" y="193" width="38" height="38" as="geometry" />
        </mxCell>
        <mxCell id="CaHpgAO3zURd7GV3DpT8-400" value="&lt;font face=&quot;Times New Roman&quot; style=&quot;font-size: 15px;&quot;&gt;&lt;b&gt;X&lt;sub&gt;7&lt;/sub&gt;&lt;/b&gt;&lt;/font&gt;" style="ellipse;whiteSpace=wrap;html=1;aspect=fixed;" vertex="1" parent="CaHpgAO3zURd7GV3DpT8-420">
          <mxGeometry x="783.9418604651163" y="117" width="38" height="38" as="geometry" />
        </mxCell>
        <mxCell id="CaHpgAO3zURd7GV3DpT8-401" value="&lt;font face=&quot;Times New Roman&quot; style=&quot;font-size: 15px;&quot;&gt;&lt;b&gt;X&lt;sub&gt;9&lt;/sub&gt;&lt;/b&gt;&lt;/font&gt;" style="ellipse;whiteSpace=wrap;html=1;aspect=fixed;" vertex="1" parent="CaHpgAO3zURd7GV3DpT8-420">
          <mxGeometry x="755.3372093023256" y="41" width="38" height="38" as="geometry" />
        </mxCell>
        <mxCell id="CaHpgAO3zURd7GV3DpT8-402" value="&lt;font face=&quot;Times New Roman&quot; style=&quot;font-size: 15px;&quot;&gt;&lt;b&gt;X&lt;sub&gt;10&lt;/sub&gt;&lt;/b&gt;&lt;/font&gt;" style="ellipse;whiteSpace=wrap;html=1;aspect=fixed;" vertex="1" parent="CaHpgAO3zURd7GV3DpT8-420">
          <mxGeometry x="841.1511627906978" y="41" width="38" height="38" as="geometry" />
        </mxCell>
        <mxCell id="CaHpgAO3zURd7GV3DpT8-403" value="&lt;font face=&quot;Times New Roman&quot; style=&quot;font-size: 15px;&quot;&gt;&lt;b&gt;X&lt;sub&gt;8&lt;/sub&gt;&lt;/b&gt;&lt;/font&gt;" style="ellipse;whiteSpace=wrap;html=1;aspect=fixed;" vertex="1" parent="CaHpgAO3zURd7GV3DpT8-420">
          <mxGeometry x="831.6162790697674" y="193" width="38" height="38" as="geometry" />
        </mxCell>
        <mxCell id="CaHpgAO3zURd7GV3DpT8-404" style="edgeStyle=orthogonalEdgeStyle;rounded=0;orthogonalLoop=1;jettySize=auto;html=1;exitX=1;exitY=0.5;exitDx=0;exitDy=0;entryX=0;entryY=0.5;entryDx=0;entryDy=0;startArrow=none;startFill=0;endArrow=none;endFill=0;" edge="1" parent="CaHpgAO3zURd7GV3DpT8-420" source="CaHpgAO3zURd7GV3DpT8-397" target="CaHpgAO3zURd7GV3DpT8-399">
          <mxGeometry relative="1" as="geometry" />
        </mxCell>
        <mxCell id="CaHpgAO3zURd7GV3DpT8-405" value="" style="endArrow=classic;html=1;rounded=0;exitX=0.5;exitY=1;exitDx=0;exitDy=0;entryX=0;entryY=0;entryDx=0;entryDy=0;" edge="1" parent="CaHpgAO3zURd7GV3DpT8-420" source="CaHpgAO3zURd7GV3DpT8-393" target="CaHpgAO3zURd7GV3DpT8-396">
          <mxGeometry width="50" height="50" relative="1" as="geometry">
            <mxPoint x="774.4069767441861" y="69.5" as="sourcePoint" />
            <mxPoint x="822.0813953488372" y="22" as="targetPoint" />
          </mxGeometry>
        </mxCell>
        <mxCell id="CaHpgAO3zURd7GV3DpT8-406" value="" style="endArrow=none;html=1;rounded=0;exitX=0.5;exitY=1;exitDx=0;exitDy=0;entryX=1;entryY=0;entryDx=0;entryDy=0;startArrow=classic;startFill=1;endFill=0;" edge="1" parent="CaHpgAO3zURd7GV3DpT8-420" source="CaHpgAO3zURd7GV3DpT8-394" target="CaHpgAO3zURd7GV3DpT8-396">
          <mxGeometry width="50" height="50" relative="1" as="geometry">
            <mxPoint x="774.4069767441861" y="69.5" as="sourcePoint" />
            <mxPoint x="822.0813953488372" y="22" as="targetPoint" />
          </mxGeometry>
        </mxCell>
        <mxCell id="CaHpgAO3zURd7GV3DpT8-407" value="" style="endArrow=classic;html=1;rounded=0;exitX=0;exitY=1;exitDx=0;exitDy=0;entryX=1;entryY=0;entryDx=0;entryDy=0;" edge="1" parent="CaHpgAO3zURd7GV3DpT8-420" source="CaHpgAO3zURd7GV3DpT8-400" target="CaHpgAO3zURd7GV3DpT8-399">
          <mxGeometry width="50" height="50" relative="1" as="geometry">
            <mxPoint x="736.2674418604652" y="69.5" as="sourcePoint" />
            <mxPoint x="783.9418604651163" y="22" as="targetPoint" />
          </mxGeometry>
        </mxCell>
        <mxCell id="CaHpgAO3zURd7GV3DpT8-408" value="" style="endArrow=classic;html=1;rounded=0;exitX=1;exitY=1;exitDx=0;exitDy=0;entryX=0.025;entryY=0.325;entryDx=0;entryDy=0;entryPerimeter=0;" edge="1" parent="CaHpgAO3zURd7GV3DpT8-420" source="CaHpgAO3zURd7GV3DpT8-396" target="CaHpgAO3zURd7GV3DpT8-397">
          <mxGeometry width="50" height="50" relative="1" as="geometry">
            <mxPoint x="736.2674418604652" y="69.5" as="sourcePoint" />
            <mxPoint x="783.9418604651163" y="22" as="targetPoint" />
          </mxGeometry>
        </mxCell>
        <mxCell id="CaHpgAO3zURd7GV3DpT8-409" value="" style="endArrow=classic;html=1;rounded=0;fontFamily=Times New Roman;entryX=1;entryY=0.5;entryDx=0;entryDy=0;exitX=0;exitY=0.5;exitDx=0;exitDy=0;" edge="1" parent="CaHpgAO3zURd7GV3DpT8-420" source="CaHpgAO3zURd7GV3DpT8-402" target="CaHpgAO3zURd7GV3DpT8-401">
          <mxGeometry width="50" height="50" relative="1" as="geometry">
            <mxPoint x="922.1976744186047" y="22" as="sourcePoint" />
            <mxPoint x="969.8720930232558" y="-25.5" as="targetPoint" />
          </mxGeometry>
        </mxCell>
        <mxCell id="CaHpgAO3zURd7GV3DpT8-410" value="" style="endArrow=none;html=1;rounded=0;exitX=1;exitY=1;exitDx=0;exitDy=0;entryX=0.5;entryY=0;entryDx=0;entryDy=0;endFill=0;startArrow=none;startFill=0;" edge="1" parent="CaHpgAO3zURd7GV3DpT8-420" source="CaHpgAO3zURd7GV3DpT8-398" target="CaHpgAO3zURd7GV3DpT8-399">
          <mxGeometry width="50" height="50" relative="1" as="geometry">
            <mxPoint x="730.546511627907" y="155" as="sourcePoint" />
            <mxPoint x="793.4767441860465" y="208.2" as="targetPoint" />
          </mxGeometry>
        </mxCell>
        <mxCell id="CaHpgAO3zURd7GV3DpT8-411" value="" style="endArrow=none;html=1;rounded=0;exitX=0.5;exitY=0;exitDx=0;exitDy=0;entryX=0;entryY=1;entryDx=0;entryDy=0;endFill=0;startArrow=none;startFill=0;" edge="1" parent="CaHpgAO3zURd7GV3DpT8-420" source="CaHpgAO3zURd7GV3DpT8-397" target="CaHpgAO3zURd7GV3DpT8-398">
          <mxGeometry width="50" height="50" relative="1" as="geometry">
            <mxPoint x="616.1279069767442" y="177.79999999999998" as="sourcePoint" />
            <mxPoint x="679.0581395348837" y="231" as="targetPoint" />
          </mxGeometry>
        </mxCell>
        <mxCell id="CaHpgAO3zURd7GV3DpT8-412" value="" style="endArrow=classic;html=1;rounded=0;entryX=0;entryY=0;entryDx=0;entryDy=0;exitX=1;exitY=1;exitDx=0;exitDy=0;" edge="1" parent="CaHpgAO3zURd7GV3DpT8-420" source="CaHpgAO3zURd7GV3DpT8-400" target="CaHpgAO3zURd7GV3DpT8-403">
          <mxGeometry width="50" height="50" relative="1" as="geometry">
            <mxPoint x="822.0813953488372" y="155" as="sourcePoint" />
            <mxPoint x="774.4069767441861" y="202.5" as="targetPoint" />
          </mxGeometry>
        </mxCell>
        <mxCell id="CaHpgAO3zURd7GV3DpT8-413" value="" style="endArrow=classic;html=1;rounded=0;exitX=0.5;exitY=1;exitDx=0;exitDy=0;entryX=0;entryY=0;entryDx=0;entryDy=0;" edge="1" parent="CaHpgAO3zURd7GV3DpT8-420" source="CaHpgAO3zURd7GV3DpT8-401" target="CaHpgAO3zURd7GV3DpT8-400">
          <mxGeometry width="50" height="50" relative="1" as="geometry">
            <mxPoint x="808.7325581395348" y="168.3" as="sourcePoint" />
            <mxPoint x="783.9418604651163" y="212" as="targetPoint" />
          </mxGeometry>
        </mxCell>
        <mxCell id="CaHpgAO3zURd7GV3DpT8-418" value="" style="endArrow=classic;html=1;rounded=0;exitX=1;exitY=0.5;exitDx=0;exitDy=0;" edge="1" parent="CaHpgAO3zURd7GV3DpT8-420" source="CaHpgAO3zURd7GV3DpT8-396">
          <mxGeometry width="50" height="50" relative="1" as="geometry">
            <mxPoint x="606.5930232558139" y="139.8" as="sourcePoint" />
            <mxPoint x="679.0581395348837" y="136" as="targetPoint" />
          </mxGeometry>
        </mxCell>
        <mxCell id="CaHpgAO3zURd7GV3DpT8-419" value="" style="endArrow=none;html=1;rounded=0;exitX=1;exitY=0.5;exitDx=0;exitDy=0;startArrow=classic;startFill=1;endFill=0;" edge="1" parent="CaHpgAO3zURd7GV3DpT8-420" target="CaHpgAO3zURd7GV3DpT8-400">
          <mxGeometry width="50" height="50" relative="1" as="geometry">
            <mxPoint x="717.06" y="135.5" as="sourcePoint" />
            <mxPoint x="781.5" y="136" as="targetPoint" />
          </mxGeometry>
        </mxCell>
        <mxCell id="CaHpgAO3zURd7GV3DpT8-537" value="" style="endArrow=classic;html=1;rounded=0;exitX=0;exitY=1;exitDx=0;exitDy=0;entryX=1;entryY=0;entryDx=0;entryDy=0;" edge="1" parent="CaHpgAO3zURd7GV3DpT8-420" source="CaHpgAO3zURd7GV3DpT8-402" target="CaHpgAO3zURd7GV3DpT8-400">
          <mxGeometry width="50" height="50" relative="1" as="geometry">
            <mxPoint x="784.5" y="89" as="sourcePoint" />
            <mxPoint x="799.5" y="133" as="targetPoint" />
          </mxGeometry>
        </mxCell>
        <mxCell id="CaHpgAO3zURd7GV3DpT8-668" value="" style="group" vertex="1" connectable="0" parent="CaHpgAO3zURd7GV3DpT8-330">
          <mxGeometry x="70" y="60" width="230" height="230" as="geometry" />
        </mxCell>
        <mxCell id="CaHpgAO3zURd7GV3DpT8-342" value="&lt;font face=&quot;Times New Roman&quot; style=&quot;font-size: 15px;&quot;&gt;&lt;b&gt;X&lt;sub&gt;5&lt;/sub&gt;&lt;/b&gt;&lt;/font&gt;" style="ellipse;whiteSpace=wrap;html=1;aspect=fixed;direction=east;" vertex="1" parent="CaHpgAO3zURd7GV3DpT8-668">
          <mxGeometry x="190" width="40" height="40" as="geometry" />
        </mxCell>
        <mxCell id="CaHpgAO3zURd7GV3DpT8-343" value="" style="endArrow=classic;html=1;rounded=0;exitX=0.5;exitY=1;exitDx=0;exitDy=0;entryX=0.5;entryY=0;entryDx=0;entryDy=0;" edge="1" parent="CaHpgAO3zURd7GV3DpT8-668" source="CaHpgAO3zURd7GV3DpT8-342" target="CaHpgAO3zURd7GV3DpT8-334">
          <mxGeometry width="50" height="50" relative="1" as="geometry">
            <mxPoint x="240" y="210" as="sourcePoint" />
            <mxPoint x="290" y="160" as="targetPoint" />
          </mxGeometry>
        </mxCell>
        <mxCell id="CaHpgAO3zURd7GV3DpT8-344" value="&lt;font face=&quot;Times New Roman&quot; style=&quot;font-size: 15px;&quot;&gt;&lt;b&gt;X&lt;sub&gt;1&lt;/sub&gt;&lt;/b&gt;&lt;/font&gt;" style="ellipse;whiteSpace=wrap;html=1;aspect=fixed;direction=east;" vertex="1" parent="CaHpgAO3zURd7GV3DpT8-668">
          <mxGeometry x="70" width="40" height="40" as="geometry" />
        </mxCell>
        <mxCell id="CaHpgAO3zURd7GV3DpT8-511" value="" style="endArrow=classic;html=1;rounded=0;exitX=0.5;exitY=1;exitDx=0;exitDy=0;entryX=0.5;entryY=0;entryDx=0;entryDy=0;" edge="1" parent="CaHpgAO3zURd7GV3DpT8-668" source="CaHpgAO3zURd7GV3DpT8-344" target="CaHpgAO3zURd7GV3DpT8-333">
          <mxGeometry width="50" height="50" relative="1" as="geometry">
            <mxPoint x="220" y="50" as="sourcePoint" />
            <mxPoint x="220" y="120" as="targetPoint" />
          </mxGeometry>
        </mxCell>
        <mxCell id="CaHpgAO3zURd7GV3DpT8-512" value="" style="endArrow=classic;html=1;exitX=0;exitY=1;exitDx=0;exitDy=0;entryX=0;entryY=0.5;entryDx=0;entryDy=0;curved=1;" edge="1" parent="CaHpgAO3zURd7GV3DpT8-668" source="CaHpgAO3zURd7GV3DpT8-344" target="CaHpgAO3zURd7GV3DpT8-335">
          <mxGeometry width="50" height="50" relative="1" as="geometry">
            <mxPoint x="530" y="380" as="sourcePoint" />
            <mxPoint x="580" y="330" as="targetPoint" />
            <Array as="points">
              <mxPoint y="170" />
            </Array>
          </mxGeometry>
        </mxCell>
        <mxCell id="CaHpgAO3zURd7GV3DpT8-513" value="" style="endArrow=classic;html=1;rounded=0;exitX=0;exitY=1;exitDx=0;exitDy=0;entryX=1;entryY=0;entryDx=0;entryDy=0;" edge="1" parent="CaHpgAO3zURd7GV3DpT8-668" source="CaHpgAO3zURd7GV3DpT8-342" target="CaHpgAO3zURd7GV3DpT8-333">
          <mxGeometry width="50" height="50" relative="1" as="geometry">
            <mxPoint x="530" y="380" as="sourcePoint" />
            <mxPoint x="580" y="330" as="targetPoint" />
          </mxGeometry>
        </mxCell>
        <mxCell id="CaHpgAO3zURd7GV3DpT8-333" value="&lt;font face=&quot;Times New Roman&quot; style=&quot;font-size: 15px;&quot;&gt;&lt;b&gt;X&lt;sub&gt;2&lt;/sub&gt;&lt;/b&gt;&lt;/font&gt;" style="ellipse;whiteSpace=wrap;html=1;aspect=fixed;direction=east;" vertex="1" parent="CaHpgAO3zURd7GV3DpT8-668">
          <mxGeometry x="70" y="110" width="40" height="40" as="geometry" />
        </mxCell>
        <mxCell id="CaHpgAO3zURd7GV3DpT8-334" value="&lt;font face=&quot;Times New Roman&quot; style=&quot;font-size: 15px;&quot;&gt;&lt;b&gt;X&lt;sub&gt;4&lt;/sub&gt;&lt;/b&gt;&lt;/font&gt;" style="ellipse;whiteSpace=wrap;html=1;aspect=fixed;direction=east;" vertex="1" parent="CaHpgAO3zURd7GV3DpT8-668">
          <mxGeometry x="190" y="110" width="40" height="40" as="geometry" />
        </mxCell>
        <mxCell id="CaHpgAO3zURd7GV3DpT8-335" value="&lt;font face=&quot;Times New Roman&quot; style=&quot;font-size: 15px;&quot;&gt;&lt;b&gt;X&lt;sub&gt;3&lt;/sub&gt;&lt;/b&gt;&lt;/font&gt;" style="ellipse;whiteSpace=wrap;html=1;aspect=fixed;direction=east;" vertex="1" parent="CaHpgAO3zURd7GV3DpT8-668">
          <mxGeometry x="130" y="190" width="40" height="40" as="geometry" />
        </mxCell>
        <mxCell id="CaHpgAO3zURd7GV3DpT8-336" value="" style="endArrow=none;html=1;rounded=0;exitX=1;exitY=0;exitDx=0;exitDy=0;entryX=0;entryY=1;entryDx=0;entryDy=0;endFill=0;" edge="1" parent="CaHpgAO3zURd7GV3DpT8-668" source="CaHpgAO3zURd7GV3DpT8-335" target="CaHpgAO3zURd7GV3DpT8-334">
          <mxGeometry width="50" height="50" relative="1" as="geometry">
            <mxPoint x="230" y="210" as="sourcePoint" />
            <mxPoint x="280" y="160" as="targetPoint" />
          </mxGeometry>
        </mxCell>
        <mxCell id="CaHpgAO3zURd7GV3DpT8-337" value="" style="endArrow=none;html=1;rounded=0;exitX=1;exitY=1;exitDx=0;exitDy=0;endFill=0;" edge="1" parent="CaHpgAO3zURd7GV3DpT8-668" source="CaHpgAO3zURd7GV3DpT8-333" target="CaHpgAO3zURd7GV3DpT8-335">
          <mxGeometry width="50" height="50" relative="1" as="geometry">
            <mxPoint x="150" y="170" as="sourcePoint" />
            <mxPoint x="280" y="160" as="targetPoint" />
          </mxGeometry>
        </mxCell>
        <mxCell id="CaHpgAO3zURd7GV3DpT8-338" value="" style="endArrow=none;html=1;rounded=0;exitX=0;exitY=0.5;exitDx=0;exitDy=0;entryX=1;entryY=0.5;entryDx=0;entryDy=0;endFill=0;" edge="1" parent="CaHpgAO3zURd7GV3DpT8-668" source="CaHpgAO3zURd7GV3DpT8-334" target="CaHpgAO3zURd7GV3DpT8-333">
          <mxGeometry width="50" height="50" relative="1" as="geometry">
            <mxPoint x="240" y="210" as="sourcePoint" />
            <mxPoint x="290" y="160" as="targetPoint" />
          </mxGeometry>
        </mxCell>
        <mxCell id="CaHpgAO3zURd7GV3DpT8-671" value="" style="group" vertex="1" connectable="0" parent="CaHpgAO3zURd7GV3DpT8-330">
          <mxGeometry x="70" y="350" width="230" height="230" as="geometry" />
        </mxCell>
        <mxCell id="CaHpgAO3zURd7GV3DpT8-556" value="" style="group;direction=east;" vertex="1" connectable="0" parent="CaHpgAO3zURd7GV3DpT8-671">
          <mxGeometry x="10" y="50" width="220" height="180" as="geometry" />
        </mxCell>
        <mxCell id="CaHpgAO3zURd7GV3DpT8-670" value="" style="group" vertex="1" connectable="0" parent="CaHpgAO3zURd7GV3DpT8-556">
          <mxGeometry x="60" y="60" width="160" height="120" as="geometry" />
        </mxCell>
        <mxCell id="CaHpgAO3zURd7GV3DpT8-557" value="&lt;font face=&quot;Times New Roman&quot; style=&quot;font-size: 15px;&quot;&gt;&lt;b&gt;X&lt;sub&gt;2&lt;/sub&gt;&lt;/b&gt;&lt;/font&gt;" style="ellipse;whiteSpace=wrap;html=1;aspect=fixed;direction=east;" vertex="1" parent="CaHpgAO3zURd7GV3DpT8-670">
          <mxGeometry width="40" height="40" as="geometry" />
        </mxCell>
        <mxCell id="CaHpgAO3zURd7GV3DpT8-558" value="&lt;b style=&quot;font-size: 15px;&quot;&gt;&lt;font face=&quot;Times New Roman&quot;&gt;X&lt;span style=&quot;&quot;&gt;&lt;sub&gt;4&lt;/sub&gt;&lt;/span&gt;&lt;/font&gt;&lt;/b&gt;" style="ellipse;whiteSpace=wrap;html=1;aspect=fixed;direction=east;" vertex="1" parent="CaHpgAO3zURd7GV3DpT8-670">
          <mxGeometry x="120" width="40" height="40" as="geometry" />
        </mxCell>
        <mxCell id="CaHpgAO3zURd7GV3DpT8-559" value="&lt;font face=&quot;Times New Roman&quot; style=&quot;font-size: 15px;&quot;&gt;&lt;b&gt;X&lt;sub&gt;3&lt;/sub&gt;&lt;/b&gt;&lt;/font&gt;" style="ellipse;whiteSpace=wrap;html=1;aspect=fixed;direction=east;" vertex="1" parent="CaHpgAO3zURd7GV3DpT8-670">
          <mxGeometry x="60" y="80" width="40" height="40" as="geometry" />
        </mxCell>
        <mxCell id="CaHpgAO3zURd7GV3DpT8-560" value="" style="endArrow=none;html=1;rounded=0;exitX=1;exitY=0;exitDx=0;exitDy=0;entryX=0;entryY=1;entryDx=0;entryDy=0;endFill=0;" edge="1" parent="CaHpgAO3zURd7GV3DpT8-670" source="CaHpgAO3zURd7GV3DpT8-559" target="CaHpgAO3zURd7GV3DpT8-558">
          <mxGeometry width="50" height="50" relative="1" as="geometry">
            <mxPoint x="160" y="100" as="sourcePoint" />
            <mxPoint x="210" y="50" as="targetPoint" />
          </mxGeometry>
        </mxCell>
        <mxCell id="CaHpgAO3zURd7GV3DpT8-561" value="" style="endArrow=none;html=1;rounded=0;exitX=1;exitY=1;exitDx=0;exitDy=0;endFill=0;" edge="1" parent="CaHpgAO3zURd7GV3DpT8-670" source="CaHpgAO3zURd7GV3DpT8-557" target="CaHpgAO3zURd7GV3DpT8-559">
          <mxGeometry width="50" height="50" relative="1" as="geometry">
            <mxPoint x="80" y="60" as="sourcePoint" />
            <mxPoint x="210" y="50" as="targetPoint" />
          </mxGeometry>
        </mxCell>
        <mxCell id="CaHpgAO3zURd7GV3DpT8-562" value="" style="endArrow=none;html=1;rounded=0;exitX=0;exitY=0.5;exitDx=0;exitDy=0;entryX=1;entryY=0.5;entryDx=0;entryDy=0;endFill=0;" edge="1" parent="CaHpgAO3zURd7GV3DpT8-670" source="CaHpgAO3zURd7GV3DpT8-558" target="CaHpgAO3zURd7GV3DpT8-557">
          <mxGeometry width="50" height="50" relative="1" as="geometry">
            <mxPoint x="170" y="100" as="sourcePoint" />
            <mxPoint x="220" y="50" as="targetPoint" />
          </mxGeometry>
        </mxCell>
        <mxCell id="CaHpgAO3zURd7GV3DpT8-563" value="&lt;font style=&quot;font-size: 15px;&quot; face=&quot;Times New Roman&quot;&gt;&lt;b&gt;X&lt;span style=&quot;&quot;&gt;&lt;sub&gt;5&lt;/sub&gt;&lt;/span&gt;&lt;/b&gt;&lt;/font&gt;" style="ellipse;whiteSpace=wrap;html=1;aspect=fixed;direction=east;" vertex="1" parent="CaHpgAO3zURd7GV3DpT8-671">
          <mxGeometry x="190" width="40" height="40" as="geometry" />
        </mxCell>
        <mxCell id="CaHpgAO3zURd7GV3DpT8-564" value="" style="endArrow=classic;html=1;rounded=0;exitX=0.5;exitY=1;exitDx=0;exitDy=0;entryX=0.5;entryY=0;entryDx=0;entryDy=0;" edge="1" parent="CaHpgAO3zURd7GV3DpT8-671" source="CaHpgAO3zURd7GV3DpT8-563" target="CaHpgAO3zURd7GV3DpT8-558">
          <mxGeometry width="50" height="50" relative="1" as="geometry">
            <mxPoint x="240" y="210" as="sourcePoint" />
            <mxPoint x="290" y="160" as="targetPoint" />
          </mxGeometry>
        </mxCell>
        <mxCell id="CaHpgAO3zURd7GV3DpT8-565" value="&lt;font face=&quot;Times New Roman&quot; style=&quot;font-size: 15px;&quot;&gt;&lt;b&gt;X&lt;sub&gt;1&lt;/sub&gt;&lt;/b&gt;&lt;/font&gt;" style="ellipse;whiteSpace=wrap;html=1;aspect=fixed;direction=east;" vertex="1" parent="CaHpgAO3zURd7GV3DpT8-671">
          <mxGeometry x="70" width="40" height="40" as="geometry" />
        </mxCell>
        <mxCell id="CaHpgAO3zURd7GV3DpT8-566" value="" style="endArrow=classic;html=1;rounded=0;exitX=0.5;exitY=1;exitDx=0;exitDy=0;entryX=0.5;entryY=0;entryDx=0;entryDy=0;startArrow=classic;startFill=1;" edge="1" parent="CaHpgAO3zURd7GV3DpT8-671" source="CaHpgAO3zURd7GV3DpT8-565" target="CaHpgAO3zURd7GV3DpT8-557">
          <mxGeometry width="50" height="50" relative="1" as="geometry">
            <mxPoint x="220" y="50" as="sourcePoint" />
            <mxPoint x="220" y="120" as="targetPoint" />
          </mxGeometry>
        </mxCell>
        <mxCell id="CaHpgAO3zURd7GV3DpT8-567" value="" style="endArrow=classic;html=1;exitX=0;exitY=1;exitDx=0;exitDy=0;entryX=0;entryY=0.5;entryDx=0;entryDy=0;curved=1;startArrow=classic;startFill=1;" edge="1" parent="CaHpgAO3zURd7GV3DpT8-671" source="CaHpgAO3zURd7GV3DpT8-565" target="CaHpgAO3zURd7GV3DpT8-559">
          <mxGeometry width="50" height="50" relative="1" as="geometry">
            <mxPoint x="530" y="380" as="sourcePoint" />
            <mxPoint x="580" y="330" as="targetPoint" />
            <Array as="points">
              <mxPoint y="170" />
            </Array>
          </mxGeometry>
        </mxCell>
        <mxCell id="CaHpgAO3zURd7GV3DpT8-568" value="" style="endArrow=classic;html=1;rounded=0;exitX=0;exitY=1;exitDx=0;exitDy=0;entryX=1;entryY=0;entryDx=0;entryDy=0;" edge="1" parent="CaHpgAO3zURd7GV3DpT8-671" source="CaHpgAO3zURd7GV3DpT8-563" target="CaHpgAO3zURd7GV3DpT8-557">
          <mxGeometry width="50" height="50" relative="1" as="geometry">
            <mxPoint x="530" y="380" as="sourcePoint" />
            <mxPoint x="580" y="330" as="targetPoint" />
          </mxGeometry>
        </mxCell>
        <mxCell id="CaHpgAO3zURd7GV3DpT8-421" value="&lt;font face=&quot;Times New Roman&quot; style=&quot;font-size: 20px;&quot;&gt;p = 10&amp;nbsp; /&amp;nbsp; with LC&lt;/font&gt;" style="swimlane;horizontal=0;whiteSpace=wrap;html=1;startSize=40;fillColor=#f5f5f5;fontColor=#333333;strokeColor=#666666;" vertex="1" parent="1">
          <mxGeometry x="200" y="2320" width="920" height="280" as="geometry" />
        </mxCell>
        <mxCell id="CaHpgAO3zURd7GV3DpT8-631" value="" style="endArrow=classic;html=1;exitX=0.5;exitY=1;exitDx=0;exitDy=0;entryX=0;entryY=1;entryDx=0;entryDy=0;curved=1;" edge="1" parent="CaHpgAO3zURd7GV3DpT8-421">
          <mxGeometry width="50" height="50" relative="1" as="geometry">
            <mxPoint x="144" y="153" as="sourcePoint" />
            <mxPoint x="292" y="223" as="targetPoint" />
            <Array as="points">
              <mxPoint x="144" y="297" />
            </Array>
          </mxGeometry>
        </mxCell>
        <mxCell id="CaHpgAO3zURd7GV3DpT8-584" value="&lt;font face=&quot;Times New Roman&quot; style=&quot;font-size: 15px;&quot;&gt;&lt;b&gt;X&lt;sub&gt;1&lt;/sub&gt;&lt;/b&gt;&lt;/font&gt;" style="ellipse;whiteSpace=wrap;html=1;aspect=fixed;" vertex="1" parent="1">
          <mxGeometry x="285.5" y="2359" width="38" height="38" as="geometry" />
        </mxCell>
        <mxCell id="CaHpgAO3zURd7GV3DpT8-585" value="&lt;font face=&quot;Times New Roman&quot; style=&quot;font-size: 15px;&quot;&gt;&lt;b&gt;X&lt;sub&gt;2&lt;/sub&gt;&lt;/b&gt;&lt;/font&gt;" style="ellipse;whiteSpace=wrap;html=1;aspect=fixed;" vertex="1" parent="1">
          <mxGeometry x="361.77906976744185" y="2359" width="38" height="38" as="geometry" />
        </mxCell>
        <mxCell id="CaHpgAO3zURd7GV3DpT8-586" value="&lt;font face=&quot;Times New Roman&quot; style=&quot;font-size: 15px;&quot;&gt;&lt;b&gt;X&lt;sub&gt;3&lt;/sub&gt;&lt;/b&gt;&lt;/font&gt;" style="ellipse;whiteSpace=wrap;html=1;aspect=fixed;" vertex="1" parent="1">
          <mxGeometry x="323.6395348837209" y="2435" width="38" height="38" as="geometry" />
        </mxCell>
        <mxCell id="CaHpgAO3zURd7GV3DpT8-587" value="&lt;font face=&quot;Times New Roman&quot; style=&quot;font-size: 15px;&quot;&gt;&lt;b&gt;X&lt;sub&gt;4&lt;/sub&gt;&lt;/b&gt;&lt;/font&gt;" style="ellipse;whiteSpace=wrap;html=1;aspect=fixed;" vertex="1" parent="1">
          <mxGeometry x="399.9186046511628" y="2511" width="38" height="38" as="geometry" />
        </mxCell>
        <mxCell id="CaHpgAO3zURd7GV3DpT8-588" value="&lt;font face=&quot;Times New Roman&quot; style=&quot;font-size: 15px;&quot;&gt;&lt;b&gt;X&lt;sub&gt;5&lt;/sub&gt;&lt;/b&gt;&lt;/font&gt;" style="ellipse;whiteSpace=wrap;html=1;aspect=fixed;" vertex="1" parent="1">
          <mxGeometry x="438.0581395348837" y="2435" width="38" height="38" as="geometry" />
        </mxCell>
        <mxCell id="CaHpgAO3zURd7GV3DpT8-589" value="&lt;font face=&quot;Times New Roman&quot; style=&quot;font-size: 15px;&quot;&gt;&lt;b&gt;X&lt;sub&gt;6&lt;/sub&gt;&lt;/b&gt;&lt;/font&gt;" style="ellipse;whiteSpace=wrap;html=1;aspect=fixed;" vertex="1" parent="1">
          <mxGeometry x="485.7325581395349" y="2511" width="38" height="38" as="geometry" />
        </mxCell>
        <mxCell id="CaHpgAO3zURd7GV3DpT8-590" value="&lt;font face=&quot;Times New Roman&quot; style=&quot;font-size: 15px;&quot;&gt;&lt;b&gt;X&lt;sub&gt;7&lt;/sub&gt;&lt;/b&gt;&lt;/font&gt;" style="ellipse;whiteSpace=wrap;html=1;aspect=fixed;" vertex="1" parent="1">
          <mxGeometry x="542.9418604651163" y="2435" width="38" height="38" as="geometry" />
        </mxCell>
        <mxCell id="CaHpgAO3zURd7GV3DpT8-591" value="&lt;font face=&quot;Times New Roman&quot; style=&quot;font-size: 15px;&quot;&gt;&lt;b&gt;X&lt;sub&gt;9&lt;/sub&gt;&lt;/b&gt;&lt;/font&gt;" style="ellipse;whiteSpace=wrap;html=1;aspect=fixed;" vertex="1" parent="1">
          <mxGeometry x="514.3372093023256" y="2359" width="38" height="38" as="geometry" />
        </mxCell>
        <mxCell id="CaHpgAO3zURd7GV3DpT8-592" value="&lt;font face=&quot;Times New Roman&quot; style=&quot;font-size: 15px;&quot;&gt;&lt;b&gt;X&lt;sub&gt;10&lt;/sub&gt;&lt;/b&gt;&lt;/font&gt;" style="ellipse;whiteSpace=wrap;html=1;aspect=fixed;" vertex="1" parent="1">
          <mxGeometry x="600.1511627906978" y="2359" width="38" height="38" as="geometry" />
        </mxCell>
        <mxCell id="CaHpgAO3zURd7GV3DpT8-593" value="&lt;font face=&quot;Times New Roman&quot; style=&quot;font-size: 15px;&quot;&gt;&lt;b&gt;X&lt;sub&gt;8&lt;/sub&gt;&lt;/b&gt;&lt;/font&gt;" style="ellipse;whiteSpace=wrap;html=1;aspect=fixed;" vertex="1" parent="1">
          <mxGeometry x="590.6162790697674" y="2511" width="38" height="38" as="geometry" />
        </mxCell>
        <mxCell id="CaHpgAO3zURd7GV3DpT8-594" style="edgeStyle=orthogonalEdgeStyle;rounded=0;orthogonalLoop=1;jettySize=auto;html=1;exitX=1;exitY=0.5;exitDx=0;exitDy=0;entryX=0;entryY=0.5;entryDx=0;entryDy=0;startArrow=none;startFill=0;endArrow=none;endFill=0;" edge="1" parent="1" source="CaHpgAO3zURd7GV3DpT8-587" target="CaHpgAO3zURd7GV3DpT8-589">
          <mxGeometry relative="1" as="geometry" />
        </mxCell>
        <mxCell id="CaHpgAO3zURd7GV3DpT8-595" value="" style="endArrow=classic;html=1;rounded=0;exitX=0.5;exitY=1;exitDx=0;exitDy=0;entryX=0;entryY=0;entryDx=0;entryDy=0;" edge="1" parent="1" source="CaHpgAO3zURd7GV3DpT8-584" target="CaHpgAO3zURd7GV3DpT8-586">
          <mxGeometry width="50" height="50" relative="1" as="geometry">
            <mxPoint x="533.4069767441861" y="2387.5" as="sourcePoint" />
            <mxPoint x="581.0813953488372" y="2340" as="targetPoint" />
          </mxGeometry>
        </mxCell>
        <mxCell id="CaHpgAO3zURd7GV3DpT8-596" value="" style="endArrow=none;html=1;rounded=0;exitX=0.5;exitY=1;exitDx=0;exitDy=0;entryX=1;entryY=0;entryDx=0;entryDy=0;startArrow=classic;startFill=1;endFill=0;" edge="1" parent="1" source="CaHpgAO3zURd7GV3DpT8-585" target="CaHpgAO3zURd7GV3DpT8-586">
          <mxGeometry width="50" height="50" relative="1" as="geometry">
            <mxPoint x="533.4069767441861" y="2387.5" as="sourcePoint" />
            <mxPoint x="581.0813953488372" y="2340" as="targetPoint" />
          </mxGeometry>
        </mxCell>
        <mxCell id="CaHpgAO3zURd7GV3DpT8-597" value="" style="endArrow=classic;html=1;rounded=0;exitX=0;exitY=1;exitDx=0;exitDy=0;entryX=1;entryY=0;entryDx=0;entryDy=0;" edge="1" parent="1" source="CaHpgAO3zURd7GV3DpT8-590" target="CaHpgAO3zURd7GV3DpT8-589">
          <mxGeometry width="50" height="50" relative="1" as="geometry">
            <mxPoint x="495.2674418604651" y="2387.5" as="sourcePoint" />
            <mxPoint x="542.9418604651163" y="2340" as="targetPoint" />
          </mxGeometry>
        </mxCell>
        <mxCell id="CaHpgAO3zURd7GV3DpT8-598" value="" style="endArrow=classic;html=1;rounded=0;entryX=0.025;entryY=0.325;entryDx=0;entryDy=0;entryPerimeter=0;" edge="1" parent="1" target="CaHpgAO3zURd7GV3DpT8-587">
          <mxGeometry width="50" height="50" relative="1" as="geometry">
            <mxPoint x="356" y="2467" as="sourcePoint" />
            <mxPoint x="542.9418604651163" y="2340" as="targetPoint" />
          </mxGeometry>
        </mxCell>
        <mxCell id="CaHpgAO3zURd7GV3DpT8-599" value="" style="endArrow=classic;html=1;rounded=0;fontFamily=Times New Roman;entryX=1;entryY=0.5;entryDx=0;entryDy=0;exitX=0;exitY=0.5;exitDx=0;exitDy=0;" edge="1" parent="1" source="CaHpgAO3zURd7GV3DpT8-592" target="CaHpgAO3zURd7GV3DpT8-591">
          <mxGeometry width="50" height="50" relative="1" as="geometry">
            <mxPoint x="681.1976744186047" y="2340" as="sourcePoint" />
            <mxPoint x="728.8720930232558" y="2292.5" as="targetPoint" />
          </mxGeometry>
        </mxCell>
        <mxCell id="CaHpgAO3zURd7GV3DpT8-600" value="" style="endArrow=none;html=1;rounded=0;exitX=1;exitY=1;exitDx=0;exitDy=0;entryX=0.5;entryY=0;entryDx=0;entryDy=0;startArrow=none;startFill=0;endFill=0;" edge="1" parent="1" source="CaHpgAO3zURd7GV3DpT8-588" target="CaHpgAO3zURd7GV3DpT8-589">
          <mxGeometry width="50" height="50" relative="1" as="geometry">
            <mxPoint x="489.54651162790697" y="2473" as="sourcePoint" />
            <mxPoint x="552.4767441860465" y="2526.2" as="targetPoint" />
          </mxGeometry>
        </mxCell>
        <mxCell id="CaHpgAO3zURd7GV3DpT8-601" value="" style="endArrow=none;html=1;rounded=0;exitX=0.5;exitY=0;exitDx=0;exitDy=0;entryX=0;entryY=1;entryDx=0;entryDy=0;startArrow=none;startFill=0;endFill=0;" edge="1" parent="1" source="CaHpgAO3zURd7GV3DpT8-587" target="CaHpgAO3zURd7GV3DpT8-588">
          <mxGeometry width="50" height="50" relative="1" as="geometry">
            <mxPoint x="375.12790697674416" y="2495.8" as="sourcePoint" />
            <mxPoint x="438.0581395348837" y="2549" as="targetPoint" />
          </mxGeometry>
        </mxCell>
        <mxCell id="CaHpgAO3zURd7GV3DpT8-602" value="" style="endArrow=classic;html=1;rounded=0;entryX=0;entryY=0;entryDx=0;entryDy=0;exitX=1;exitY=1;exitDx=0;exitDy=0;" edge="1" parent="1" source="CaHpgAO3zURd7GV3DpT8-590" target="CaHpgAO3zURd7GV3DpT8-593">
          <mxGeometry width="50" height="50" relative="1" as="geometry">
            <mxPoint x="581.0813953488372" y="2473" as="sourcePoint" />
            <mxPoint x="533.4069767441861" y="2520.5" as="targetPoint" />
          </mxGeometry>
        </mxCell>
        <mxCell id="CaHpgAO3zURd7GV3DpT8-603" value="" style="endArrow=classic;html=1;rounded=0;exitX=0.5;exitY=1;exitDx=0;exitDy=0;entryX=0;entryY=0;entryDx=0;entryDy=0;" edge="1" parent="1" source="CaHpgAO3zURd7GV3DpT8-591" target="CaHpgAO3zURd7GV3DpT8-590">
          <mxGeometry width="50" height="50" relative="1" as="geometry">
            <mxPoint x="567.7325581395348" y="2486.3" as="sourcePoint" />
            <mxPoint x="542.9418604651163" y="2530" as="targetPoint" />
          </mxGeometry>
        </mxCell>
        <mxCell id="CaHpgAO3zURd7GV3DpT8-604" value="" style="endArrow=classic;html=1;rounded=0;exitX=0;exitY=0.5;exitDx=0;exitDy=0;entryX=1;entryY=0.5;entryDx=0;entryDy=0;" edge="1" parent="1" source="CaHpgAO3zURd7GV3DpT8-590" target="CaHpgAO3zURd7GV3DpT8-588">
          <mxGeometry width="50" height="50" relative="1" as="geometry">
            <mxPoint x="559" y="2477" as="sourcePoint" />
            <mxPoint x="528" y="2527" as="targetPoint" />
          </mxGeometry>
        </mxCell>
        <mxCell id="CaHpgAO3zURd7GV3DpT8-633" value="" style="endArrow=classic;html=1;rounded=0;startArrow=classic;startFill=1;endFill=1;" edge="1" parent="1">
          <mxGeometry width="50" height="50" relative="1" as="geometry">
            <mxPoint x="410" y="2514" as="sourcePoint" />
            <mxPoint x="390" y="2394" as="targetPoint" />
          </mxGeometry>
        </mxCell>
        <mxCell id="CaHpgAO3zURd7GV3DpT8-634" value="" style="endArrow=classic;html=1;rounded=0;exitX=0;exitY=0;exitDx=0;exitDy=0;startArrow=classic;startFill=1;endFill=1;" edge="1" parent="1" source="CaHpgAO3zURd7GV3DpT8-588">
          <mxGeometry width="50" height="50" relative="1" as="geometry">
            <mxPoint x="441.6231106923399" y="2437.564971157456" as="sourcePoint" />
            <mxPoint x="397" y="2388" as="targetPoint" />
          </mxGeometry>
        </mxCell>
        <mxCell id="CaHpgAO3zURd7GV3DpT8-635" value="" style="endArrow=classic;html=1;rounded=0;fontFamily=Times New Roman;entryX=0.5;entryY=0;entryDx=0;entryDy=0;exitX=0.5;exitY=1;exitDx=0;exitDy=0;" edge="1" parent="1" source="CaHpgAO3zURd7GV3DpT8-592" target="CaHpgAO3zURd7GV3DpT8-593">
          <mxGeometry width="50" height="50" relative="1" as="geometry">
            <mxPoint x="610" y="2388" as="sourcePoint" />
            <mxPoint x="562" y="2388" as="targetPoint" />
          </mxGeometry>
        </mxCell>
        <mxCell id="CaHpgAO3zURd7GV3DpT8-636" value="" style="endArrow=classic;html=1;exitX=0.5;exitY=1;exitDx=0;exitDy=0;entryX=0;entryY=1;entryDx=0;entryDy=0;curved=1;" edge="1" parent="1">
          <mxGeometry width="50" height="50" relative="1" as="geometry">
            <mxPoint x="785" y="2474" as="sourcePoint" />
            <mxPoint x="933" y="2544" as="targetPoint" />
            <Array as="points">
              <mxPoint x="785" y="2618" />
            </Array>
          </mxGeometry>
        </mxCell>
        <mxCell id="CaHpgAO3zURd7GV3DpT8-661" style="edgeStyle=orthogonalEdgeStyle;rounded=0;orthogonalLoop=1;jettySize=auto;html=1;exitX=1;exitY=0.5;exitDx=0;exitDy=0;entryX=0;entryY=0.5;entryDx=0;entryDy=0;" edge="1" parent="1" source="CaHpgAO3zURd7GV3DpT8-637" target="CaHpgAO3zURd7GV3DpT8-638">
          <mxGeometry relative="1" as="geometry" />
        </mxCell>
        <mxCell id="CaHpgAO3zURd7GV3DpT8-637" value="&lt;font face=&quot;Times New Roman&quot; style=&quot;font-size: 15px;&quot;&gt;&lt;b&gt;X&lt;sub&gt;1&lt;/sub&gt;&lt;/b&gt;&lt;/font&gt;" style="ellipse;whiteSpace=wrap;html=1;aspect=fixed;" vertex="1" parent="1">
          <mxGeometry x="726.5" y="2360" width="38" height="38" as="geometry" />
        </mxCell>
        <mxCell id="CaHpgAO3zURd7GV3DpT8-638" value="&lt;font face=&quot;Times New Roman&quot; style=&quot;font-size: 15px;&quot;&gt;&lt;b&gt;X&lt;sub&gt;2&lt;/sub&gt;&lt;/b&gt;&lt;/font&gt;" style="ellipse;whiteSpace=wrap;html=1;aspect=fixed;" vertex="1" parent="1">
          <mxGeometry x="802.7790697674418" y="2360" width="38" height="38" as="geometry" />
        </mxCell>
        <mxCell id="CaHpgAO3zURd7GV3DpT8-662" style="edgeStyle=orthogonalEdgeStyle;rounded=0;orthogonalLoop=1;jettySize=auto;html=1;exitX=1;exitY=0.5;exitDx=0;exitDy=0;entryX=0;entryY=0.5;entryDx=0;entryDy=0;" edge="1" parent="1" source="CaHpgAO3zURd7GV3DpT8-639" target="CaHpgAO3zURd7GV3DpT8-641">
          <mxGeometry relative="1" as="geometry" />
        </mxCell>
        <mxCell id="CaHpgAO3zURd7GV3DpT8-639" value="&lt;font face=&quot;Times New Roman&quot; style=&quot;font-size: 15px;&quot;&gt;&lt;b&gt;X&lt;sub&gt;3&lt;/sub&gt;&lt;/b&gt;&lt;/font&gt;" style="ellipse;whiteSpace=wrap;html=1;aspect=fixed;" vertex="1" parent="1">
          <mxGeometry x="764.6395348837209" y="2436" width="38" height="38" as="geometry" />
        </mxCell>
        <mxCell id="CaHpgAO3zURd7GV3DpT8-640" value="&lt;font face=&quot;Times New Roman&quot; style=&quot;font-size: 15px;&quot;&gt;&lt;b&gt;X&lt;sub&gt;4&lt;/sub&gt;&lt;/b&gt;&lt;/font&gt;" style="ellipse;whiteSpace=wrap;html=1;aspect=fixed;" vertex="1" parent="1">
          <mxGeometry x="840.9186046511628" y="2512" width="38" height="38" as="geometry" />
        </mxCell>
        <mxCell id="CaHpgAO3zURd7GV3DpT8-641" value="&lt;font face=&quot;Times New Roman&quot; style=&quot;font-size: 15px;&quot;&gt;&lt;b&gt;X&lt;sub&gt;5&lt;/sub&gt;&lt;/b&gt;&lt;/font&gt;" style="ellipse;whiteSpace=wrap;html=1;aspect=fixed;" vertex="1" parent="1">
          <mxGeometry x="879.0581395348837" y="2436" width="38" height="38" as="geometry" />
        </mxCell>
        <mxCell id="CaHpgAO3zURd7GV3DpT8-642" value="&lt;font face=&quot;Times New Roman&quot; style=&quot;font-size: 15px;&quot;&gt;&lt;b&gt;X&lt;sub&gt;6&lt;/sub&gt;&lt;/b&gt;&lt;/font&gt;" style="ellipse;whiteSpace=wrap;html=1;aspect=fixed;" vertex="1" parent="1">
          <mxGeometry x="926.7325581395348" y="2512" width="38" height="38" as="geometry" />
        </mxCell>
        <mxCell id="CaHpgAO3zURd7GV3DpT8-643" value="&lt;font face=&quot;Times New Roman&quot; style=&quot;font-size: 15px;&quot;&gt;&lt;b&gt;X&lt;sub&gt;7&lt;/sub&gt;&lt;/b&gt;&lt;/font&gt;" style="ellipse;whiteSpace=wrap;html=1;aspect=fixed;" vertex="1" parent="1">
          <mxGeometry x="983.9418604651163" y="2436" width="38" height="38" as="geometry" />
        </mxCell>
        <mxCell id="CaHpgAO3zURd7GV3DpT8-644" value="&lt;font face=&quot;Times New Roman&quot; style=&quot;font-size: 15px;&quot;&gt;&lt;b style=&quot;&quot;&gt;X&lt;sub style=&quot;&quot;&gt;9&lt;/sub&gt;&lt;/b&gt;&lt;/font&gt;" style="ellipse;whiteSpace=wrap;html=1;aspect=fixed;" vertex="1" parent="1">
          <mxGeometry x="955.3372093023256" y="2360" width="38" height="38" as="geometry" />
        </mxCell>
        <mxCell id="CaHpgAO3zURd7GV3DpT8-645" value="&lt;font face=&quot;Times New Roman&quot; style=&quot;font-size: 15px;&quot;&gt;&lt;b&gt;X&lt;sub&gt;10&lt;/sub&gt;&lt;/b&gt;&lt;/font&gt;" style="ellipse;whiteSpace=wrap;html=1;aspect=fixed;" vertex="1" parent="1">
          <mxGeometry x="1041.1511627906978" y="2360" width="38" height="38" as="geometry" />
        </mxCell>
        <mxCell id="CaHpgAO3zURd7GV3DpT8-646" value="&lt;font face=&quot;Times New Roman&quot; style=&quot;font-size: 15px;&quot;&gt;&lt;b&gt;X&lt;sub&gt;8&lt;/sub&gt;&lt;/b&gt;&lt;/font&gt;" style="ellipse;whiteSpace=wrap;html=1;aspect=fixed;" vertex="1" parent="1">
          <mxGeometry x="1031.6162790697674" y="2512" width="38" height="38" as="geometry" />
        </mxCell>
        <mxCell id="CaHpgAO3zURd7GV3DpT8-647" style="edgeStyle=orthogonalEdgeStyle;rounded=0;orthogonalLoop=1;jettySize=auto;html=1;exitX=1;exitY=0.5;exitDx=0;exitDy=0;entryX=0;entryY=0.5;entryDx=0;entryDy=0;startArrow=none;startFill=0;endArrow=none;endFill=0;" edge="1" parent="1" source="CaHpgAO3zURd7GV3DpT8-640" target="CaHpgAO3zURd7GV3DpT8-642">
          <mxGeometry relative="1" as="geometry" />
        </mxCell>
        <mxCell id="CaHpgAO3zURd7GV3DpT8-648" value="" style="endArrow=classic;html=1;rounded=0;exitX=0.5;exitY=1;exitDx=0;exitDy=0;entryX=0;entryY=0;entryDx=0;entryDy=0;" edge="1" parent="1" source="CaHpgAO3zURd7GV3DpT8-637" target="CaHpgAO3zURd7GV3DpT8-639">
          <mxGeometry width="50" height="50" relative="1" as="geometry">
            <mxPoint x="974.4069767441861" y="2388.5" as="sourcePoint" />
            <mxPoint x="1022.0813953488372" y="2341" as="targetPoint" />
          </mxGeometry>
        </mxCell>
        <mxCell id="CaHpgAO3zURd7GV3DpT8-649" value="" style="endArrow=none;html=1;rounded=0;exitX=0.5;exitY=1;exitDx=0;exitDy=0;entryX=1;entryY=0;entryDx=0;entryDy=0;startArrow=classic;startFill=1;endFill=0;" edge="1" parent="1" source="CaHpgAO3zURd7GV3DpT8-638" target="CaHpgAO3zURd7GV3DpT8-639">
          <mxGeometry width="50" height="50" relative="1" as="geometry">
            <mxPoint x="974.4069767441861" y="2388.5" as="sourcePoint" />
            <mxPoint x="1022.0813953488372" y="2341" as="targetPoint" />
          </mxGeometry>
        </mxCell>
        <mxCell id="CaHpgAO3zURd7GV3DpT8-650" value="" style="endArrow=classic;html=1;rounded=0;exitX=0;exitY=1;exitDx=0;exitDy=0;entryX=1;entryY=0;entryDx=0;entryDy=0;" edge="1" parent="1" source="CaHpgAO3zURd7GV3DpT8-643" target="CaHpgAO3zURd7GV3DpT8-642">
          <mxGeometry width="50" height="50" relative="1" as="geometry">
            <mxPoint x="936.2674418604652" y="2388.5" as="sourcePoint" />
            <mxPoint x="983.9418604651163" y="2341" as="targetPoint" />
          </mxGeometry>
        </mxCell>
        <mxCell id="CaHpgAO3zURd7GV3DpT8-651" value="" style="endArrow=classic;html=1;rounded=0;entryX=0.025;entryY=0.325;entryDx=0;entryDy=0;entryPerimeter=0;" edge="1" parent="1" target="CaHpgAO3zURd7GV3DpT8-640">
          <mxGeometry width="50" height="50" relative="1" as="geometry">
            <mxPoint x="797" y="2468" as="sourcePoint" />
            <mxPoint x="983.9418604651163" y="2341" as="targetPoint" />
          </mxGeometry>
        </mxCell>
        <mxCell id="CaHpgAO3zURd7GV3DpT8-652" value="" style="endArrow=classic;html=1;rounded=0;fontFamily=Times New Roman;entryX=1;entryY=0.5;entryDx=0;entryDy=0;exitX=0;exitY=0.5;exitDx=0;exitDy=0;" edge="1" parent="1" source="CaHpgAO3zURd7GV3DpT8-645" target="CaHpgAO3zURd7GV3DpT8-644">
          <mxGeometry width="50" height="50" relative="1" as="geometry">
            <mxPoint x="1122.1976744186047" y="2341" as="sourcePoint" />
            <mxPoint x="1169.8720930232557" y="2293.5" as="targetPoint" />
          </mxGeometry>
        </mxCell>
        <mxCell id="CaHpgAO3zURd7GV3DpT8-653" value="" style="endArrow=none;html=1;rounded=0;exitX=1;exitY=1;exitDx=0;exitDy=0;entryX=0.5;entryY=0;entryDx=0;entryDy=0;startArrow=none;startFill=0;endFill=0;" edge="1" parent="1" source="CaHpgAO3zURd7GV3DpT8-641" target="CaHpgAO3zURd7GV3DpT8-642">
          <mxGeometry width="50" height="50" relative="1" as="geometry">
            <mxPoint x="930.546511627907" y="2474" as="sourcePoint" />
            <mxPoint x="993.4767441860465" y="2527.2" as="targetPoint" />
          </mxGeometry>
        </mxCell>
        <mxCell id="CaHpgAO3zURd7GV3DpT8-654" value="" style="endArrow=none;html=1;rounded=0;exitX=0.5;exitY=0;exitDx=0;exitDy=0;entryX=0;entryY=1;entryDx=0;entryDy=0;startArrow=none;startFill=0;endFill=0;" edge="1" parent="1" source="CaHpgAO3zURd7GV3DpT8-640" target="CaHpgAO3zURd7GV3DpT8-641">
          <mxGeometry width="50" height="50" relative="1" as="geometry">
            <mxPoint x="816.1279069767442" y="2496.8" as="sourcePoint" />
            <mxPoint x="879.0581395348837" y="2550" as="targetPoint" />
          </mxGeometry>
        </mxCell>
        <mxCell id="CaHpgAO3zURd7GV3DpT8-655" value="" style="endArrow=classic;html=1;rounded=0;entryX=0;entryY=0;entryDx=0;entryDy=0;exitX=1;exitY=1;exitDx=0;exitDy=0;" edge="1" parent="1" source="CaHpgAO3zURd7GV3DpT8-643" target="CaHpgAO3zURd7GV3DpT8-646">
          <mxGeometry width="50" height="50" relative="1" as="geometry">
            <mxPoint x="1022.0813953488372" y="2474" as="sourcePoint" />
            <mxPoint x="974.4069767441861" y="2521.5" as="targetPoint" />
          </mxGeometry>
        </mxCell>
        <mxCell id="CaHpgAO3zURd7GV3DpT8-656" value="" style="endArrow=classic;html=1;rounded=0;exitX=0.5;exitY=1;exitDx=0;exitDy=0;entryX=0;entryY=0;entryDx=0;entryDy=0;" edge="1" parent="1" source="CaHpgAO3zURd7GV3DpT8-644" target="CaHpgAO3zURd7GV3DpT8-643">
          <mxGeometry width="50" height="50" relative="1" as="geometry">
            <mxPoint x="1008.7325581395348" y="2487.3" as="sourcePoint" />
            <mxPoint x="983.9418604651163" y="2531" as="targetPoint" />
          </mxGeometry>
        </mxCell>
        <mxCell id="CaHpgAO3zURd7GV3DpT8-657" value="" style="endArrow=classic;html=1;rounded=0;exitX=0;exitY=0.5;exitDx=0;exitDy=0;entryX=1;entryY=0.5;entryDx=0;entryDy=0;" edge="1" parent="1" source="CaHpgAO3zURd7GV3DpT8-643" target="CaHpgAO3zURd7GV3DpT8-641">
          <mxGeometry width="50" height="50" relative="1" as="geometry">
            <mxPoint x="1000" y="2478" as="sourcePoint" />
            <mxPoint x="969" y="2528" as="targetPoint" />
          </mxGeometry>
        </mxCell>
        <mxCell id="CaHpgAO3zURd7GV3DpT8-658" value="" style="endArrow=classic;html=1;rounded=0;startArrow=classic;startFill=1;endFill=1;" edge="1" parent="1">
          <mxGeometry width="50" height="50" relative="1" as="geometry">
            <mxPoint x="851" y="2515" as="sourcePoint" />
            <mxPoint x="831" y="2395" as="targetPoint" />
          </mxGeometry>
        </mxCell>
        <mxCell id="CaHpgAO3zURd7GV3DpT8-659" value="" style="endArrow=classic;html=1;rounded=0;exitX=0;exitY=0;exitDx=0;exitDy=0;startArrow=classic;startFill=1;endFill=1;" edge="1" parent="1" source="CaHpgAO3zURd7GV3DpT8-641">
          <mxGeometry width="50" height="50" relative="1" as="geometry">
            <mxPoint x="882.6231106923399" y="2438.564971157456" as="sourcePoint" />
            <mxPoint x="838" y="2389" as="targetPoint" />
          </mxGeometry>
        </mxCell>
        <mxCell id="CaHpgAO3zURd7GV3DpT8-660" value="" style="endArrow=classic;html=1;rounded=0;fontFamily=Times New Roman;" edge="1" parent="1">
          <mxGeometry width="50" height="50" relative="1" as="geometry">
            <mxPoint x="1070" y="2396" as="sourcePoint" />
            <mxPoint x="1060" y="2516" as="targetPoint" />
          </mxGeometry>
        </mxCell>
        <mxCell id="CaHpgAO3zURd7GV3DpT8-663" value="" style="endArrow=classic;html=1;exitX=1;exitY=1;exitDx=0;exitDy=0;entryX=0.5;entryY=0;entryDx=0;entryDy=0;curved=1;" edge="1" parent="1" source="CaHpgAO3zURd7GV3DpT8-644" target="CaHpgAO3zURd7GV3DpT8-646">
          <mxGeometry width="50" height="50" relative="1" as="geometry">
            <mxPoint x="984" y="2408" as="sourcePoint" />
            <mxPoint x="1000" y="2452" as="targetPoint" />
            <Array as="points">
              <mxPoint x="1051" y="2429" />
            </Array>
          </mxGeometry>
        </mxCell>
        <mxCell id="CaHpgAO3zURd7GV3DpT8-664" value="" style="endArrow=classic;html=1;rounded=0;fontFamily=Times New Roman;entryX=1;entryY=0;entryDx=0;entryDy=0;exitX=0;exitY=1;exitDx=0;exitDy=0;" edge="1" parent="1" source="CaHpgAO3zURd7GV3DpT8-645" target="CaHpgAO3zURd7GV3DpT8-643">
          <mxGeometry width="50" height="50" relative="1" as="geometry">
            <mxPoint x="1070" y="2408" as="sourcePoint" />
            <mxPoint x="1074" y="2528" as="targetPoint" />
          </mxGeometry>
        </mxCell>
      </root>
    </mxGraphModel>
  </diagram>
</mxfile>
